<?xml version="1.0" encoding="UTF-8" standalone="no"?>
<!-- Created with Inkscape (http://www.inkscape.org/) -->
<svg
   xmlns:dc="http://purl.org/dc/elements/1.1/"
   xmlns:cc="http://creativecommons.org/ns#"
   xmlns:rdf="http://www.w3.org/1999/02/22-rdf-syntax-ns#"
   xmlns:svg="http://www.w3.org/2000/svg"
   xmlns="http://www.w3.org/2000/svg"
   xmlns:xlink="http://www.w3.org/1999/xlink"
   xmlns:sodipodi="http://sodipodi.sourceforge.net/DTD/sodipodi-0.dtd"
   xmlns:inkscape="http://www.inkscape.org/namespaces/inkscape"
   width="575"
   height="575"
   id="svg2"
   sodipodi:version="0.32"
   inkscape:version="0.46"
   version="1.0"
   sodipodi:docname="logo.svg"
   inkscape:output_extension="org.inkscape.output.svg.inkscape"
   inkscape:export-filename="/home/michael/Dropbox/Public/gb-logos/logo5.png"
   inkscape:export-xdpi="90"
   inkscape:export-ydpi="90">
  <defs
     id="defs4">
    <linearGradient
       inkscape:collect="always"
       id="linearGradient3349">
      <stop
         style="stop-color:#555753;stop-opacity:1;"
         offset="0"
         id="stop3351" />
      <stop
         style="stop-color:#2e3436;stop-opacity:1"
         offset="1"
         id="stop3353" />
    </linearGradient>
    <linearGradient
       inkscape:collect="always"
       id="linearGradient3341">
      <stop
         style="stop-color:#8ae234;stop-opacity:1;"
         offset="0"
         id="stop3343" />
      <stop
         style="stop-color:#73d216;stop-opacity:1"
         offset="1"
         id="stop3345" />
    </linearGradient>
    <linearGradient
       id="linearGradient3766">
      <stop
         style="stop-color:#8ae234;stop-opacity:1;"
         offset="0"
         id="stop3768" />
      <stop
         style="stop-color:#4e9a06;stop-opacity:1"
         offset="1"
         id="stop3770" />
    </linearGradient>
    <linearGradient
       id="linearGradient3758">
      <stop
         style="stop-color:#555753;stop-opacity:1;"
         offset="0"
         id="stop3760" />
      <stop
         style="stop-color:#2e3436;stop-opacity:1"
         offset="1"
         id="stop3762" />
    </linearGradient>
    <linearGradient
       inkscape:collect="always"
       id="linearGradient3710">
      <stop
         style="stop-color:#ffffff;stop-opacity:1;"
         offset="0"
         id="stop3712" />
      <stop
         style="stop-color:#ffffff;stop-opacity:0;"
         offset="1"
         id="stop3714" />
    </linearGradient>
    <linearGradient
       inkscape:collect="always"
       id="linearGradient3353">
      <stop
         style="stop-color:#ffffff;stop-opacity:1;"
         offset="0"
         id="stop3355" />
      <stop
         style="stop-color:#ffffff;stop-opacity:0;"
         offset="1"
         id="stop3357" />
    </linearGradient>
    <linearGradient
       id="linearGradient3345">
      <stop
         style="stop-color:#ffffff;stop-opacity:1;"
         offset="0"
         id="stop3347" />
      <stop
         style="stop-color:#ffffff;stop-opacity:0;"
         offset="1"
         id="stop3349" />
    </linearGradient>
    <inkscape:perspective
       sodipodi:type="inkscape:persp3d"
       inkscape:vp_x="0 : 526.18109 : 1"
       inkscape:vp_y="0 : 1000 : 0"
       inkscape:vp_z="744.09448 : 526.18109 : 1"
       inkscape:persp3d-origin="372.04724 : 350.78739 : 1"
       id="perspective10" />
    <linearGradient
       inkscape:collect="always"
       xlink:href="#linearGradient3345"
       id="linearGradient3351"
       x1="-288"
       y1="319.99997"
       x2="-312"
       y2="-64.000023"
       gradientUnits="userSpaceOnUse" />
    <mask
       maskUnits="userSpaceOnUse"
       id="mask3453">
      <path
         transform="matrix(-0.71875,0,0,-0.9473684,-490.5,56.315779)"
         sodipodi:nodetypes="cccscc"
         id="use3455"
         d="M -816,-481.00001 L -48,-481 L -48,-169 C -48,-121 -240,-73 -456,-169 C -594.70684,-230.64748 -744,-221 -816,-101 L -816,-481.00001 z"
         style="fill:#ffffff;fill-opacity:1;fill-rule:evenodd;stroke:none;filter:url(#filter3593)" />
    </mask>
    <filter
       inkscape:collect="always"
       id="filter3593">
      <feGaussianBlur
         inkscape:collect="always"
         stdDeviation="2.9989225"
         id="feGaussianBlur3595" />
    </filter>
    <linearGradient
       inkscape:collect="always"
       xlink:href="#linearGradient3353"
       id="linearGradient3670"
       gradientUnits="userSpaceOnUse"
       x1="-312"
       y1="-15.99999"
       x2="-312"
       y2="439.99997" />
    <linearGradient
       inkscape:collect="always"
       xlink:href="#linearGradient3345"
       id="linearGradient3672"
       gradientUnits="userSpaceOnUse"
       x1="-312"
       y1="271.99994"
       x2="-312"
       y2="-64.000023" />
    <linearGradient
       inkscape:collect="always"
       xlink:href="#linearGradient3345"
       id="linearGradient3684"
       gradientUnits="userSpaceOnUse"
       x1="-312"
       y1="271.99994"
       x2="-312"
       y2="-64.000023" />
    <linearGradient
       inkscape:collect="always"
       xlink:href="#linearGradient3345"
       id="linearGradient3690"
       gradientUnits="userSpaceOnUse"
       x1="-312"
       y1="271.99994"
       x2="-312"
       y2="-64.000023" />
    <linearGradient
       inkscape:collect="always"
       xlink:href="#linearGradient3345"
       id="linearGradient3694"
       gradientUnits="userSpaceOnUse"
       x1="-312"
       y1="271.99994"
       x2="-312"
       y2="-64.000023" />
    <clipPath
       clipPathUnits="userSpaceOnUse"
       id="clipPath3698">
      <path
         transform="matrix(-0.71875,0,0,-0.9473684,-778.5,38.315879)"
         sodipodi:nodetypes="cccscc"
         id="use3700"
         d="M -816,-481.00001 L -48,-481 L -48,-169 C -48,-121 -240,-73 -456,-169 C -594.70684,-230.64748 -744,-221 -816,-101 L -816,-481.00001 z"
         style="fill:#ffffff;fill-opacity:1;fill-rule:evenodd;stroke:none;filter:url(#filter3593)" />
    </clipPath>
    <linearGradient
       inkscape:collect="always"
       xlink:href="#linearGradient3710"
       id="linearGradient3708"
       gradientUnits="userSpaceOnUse"
       x1="-384"
       y1="95.000008"
       x2="-384"
       y2="431" />
    <linearGradient
       inkscape:collect="always"
       xlink:href="#linearGradient3345"
       id="linearGradient3720"
       gradientUnits="userSpaceOnUse"
       x1="-312"
       y1="271.99994"
       x2="-312"
       y2="-64.000023" />
    <linearGradient
       inkscape:collect="always"
       xlink:href="#linearGradient3345"
       id="linearGradient3736"
       gradientUnits="userSpaceOnUse"
       x1="-312"
       y1="271.99994"
       x2="-312"
       y2="-64.000023" />
    <mask
       maskUnits="userSpaceOnUse"
       id="mask3746">
      <path
         transform="matrix(0.71875,0,0,0.9473684,130.5,319.68412)"
         sodipodi:nodetypes="cccscc"
         id="use3748"
         d="M -816,-481.00001 L -48,-481 L -48,-169 C -48,-121 -240,-73 -456,-169 C -594.70684,-230.64748 -744,-221 -816,-101 L -816,-481.00001 z"
         style="fill:#ffffff;fill-opacity:1;fill-rule:evenodd;stroke:none;filter:url(#filter3593)" />
    </mask>
    <mask
       maskUnits="userSpaceOnUse"
       id="mask3750">
      <path
         transform="matrix(-0.71875,0,0,-0.9473684,-490.5,38.315879)"
         sodipodi:nodetypes="cccscc"
         id="use3752"
         d="M -816,-481.00001 L -48,-481 L -48,-169 C -48,-121 -240,-73 -456,-169 C -594.70684,-230.64748 -744,-221 -816,-101 L -816,-481.00001 z"
         style="fill:#ffffff;fill-opacity:1;fill-rule:evenodd;stroke:none;filter:url(#filter3593)" />
    </mask>
    <linearGradient
       inkscape:collect="always"
       xlink:href="#linearGradient3345"
       id="linearGradient3754"
       gradientUnits="userSpaceOnUse"
       x1="-312"
       y1="95"
       x2="-312"
       y2="407" />
    <linearGradient
       inkscape:collect="always"
       xlink:href="#linearGradient3345"
       id="linearGradient3756"
       gradientUnits="userSpaceOnUse"
       x1="-312"
       y1="271.99994"
       x2="-312"
       y2="-64.000023" />
    <linearGradient
       inkscape:collect="always"
       xlink:href="#linearGradient3758"
       id="linearGradient3764"
       x1="-336"
       y1="119.00009"
       x2="-336"
       y2="-72.999908"
       gradientUnits="userSpaceOnUse" />
    <linearGradient
       inkscape:collect="always"
       xlink:href="#linearGradient3766"
       id="linearGradient3772"
       x1="-312"
       y1="191"
       x2="-312"
       y2="431"
       gradientUnits="userSpaceOnUse" />
    <linearGradient
       inkscape:collect="always"
       xlink:href="#linearGradient3758"
       id="linearGradient3782"
       gradientUnits="userSpaceOnUse"
       x1="-336"
       y1="119.00009"
       x2="-336"
       y2="-72.999908" />
    <linearGradient
       inkscape:collect="always"
       xlink:href="#linearGradient3766"
       id="linearGradient3784"
       gradientUnits="userSpaceOnUse"
       x1="-312"
       y1="191"
       x2="-312"
       y2="431" />
    <linearGradient
       inkscape:collect="always"
       xlink:href="#linearGradient3345"
       id="linearGradient3786"
       gradientUnits="userSpaceOnUse"
       x1="-312"
       y1="271.99994"
       x2="-312"
       y2="-64.000023" />
    <linearGradient
       inkscape:collect="always"
       xlink:href="#linearGradient3345"
       id="linearGradient3788"
       gradientUnits="userSpaceOnUse"
       x1="-312"
       y1="95"
       x2="-312"
       y2="407" />
    <linearGradient
       inkscape:collect="always"
       xlink:href="#linearGradient3766"
       id="linearGradient2450"
       gradientUnits="userSpaceOnUse"
       x1="-299.5"
       y1="-85.499962"
       x2="-312"
       y2="431" />
    <linearGradient
       inkscape:collect="always"
       xlink:href="#linearGradient3766"
       id="linearGradient2494"
       gradientUnits="userSpaceOnUse"
       x1="-299.5"
       y1="-85.499962"
       x2="-312"
       y2="431" />
    <linearGradient
       inkscape:collect="always"
       xlink:href="#linearGradient3341"
       id="linearGradient3347"
       x1="144"
       y1="191"
       x2="144"
       y2="383"
       gradientUnits="userSpaceOnUse" />
    <linearGradient
       inkscape:collect="always"
       xlink:href="#linearGradient3349"
       id="linearGradient3355"
       x1="408"
       y1="191"
       x2="408"
       y2="383"
       gradientUnits="userSpaceOnUse" />
  </defs>
  <sodipodi:namedview
     id="base"
     pagecolor="#707970"
     bordercolor="#5f5d5d"
     borderopacity="1"
     gridtolerance="10"
     guidetolerance="10"
     objecttolerance="10000"
     inkscape:pageopacity="0"
     inkscape:pageshadow="2"
     inkscape:zoom="1.4732416"
     inkscape:cx="322.59383"
     inkscape:cy="319.14538"
     inkscape:document-units="px"
     inkscape:current-layer="layer1"
     showgrid="true"
     inkscape:object-nodes="false"
     inkscape:window-width="1280"
     inkscape:window-height="739"
     inkscape:window-x="0"
     inkscape:window-y="30">
    <inkscape:grid
       type="xygrid"
       id="grid2383"
       visible="true"
       enabled="true"
       empspacing="6"
       spacingx="24px"
       spacingy="24px" />
  </sodipodi:namedview>
  <metadata
     id="metadata7">
    <rdf:RDF>
      <cc:Work
         rdf:about="">
        <dc:format>image/svg+xml</dc:format>
        <dc:type
           rdf:resource="http://purl.org/dc/dcmitype/StillImage" />
      </cc:Work>
    </rdf:RDF>
  </metadata>
  <g
     inkscape:label="base"
     inkscape:groupmode="layer"
     id="layer1"
     style="display:inline">
    <path
       style="font-size:168.68637085px;font-style:normal;font-variant:normal;font-weight:normal;font-stretch:normal;fill-opacity:1;font-family:Masterforce Solid;-inkscape-font-specification:Masterforce Solid"
       d="M 208.65286,294.77611 C 186.99904,294.77611 165.34521,294.77611 143.69138,294.77611 C 150.3051,268.37022 156.91883,241.96431 163.53255,215.55841 C 206.79122,215.65639 250.04987,215.75435 293.30854,215.85233 C 274.74112,290.21999 256.17371,364.58765 237.60629,438.95532 C 216.00145,438.95532 194.39662,438.95532 172.79178,438.95532 C 177.54386,419.75103 182.29595,400.54674 187.04803,381.34246 C 146.23889,381.34246 105.42975,381.34246 64.620607,381.34246 C 48.570431,379.70116 54.4863,362.58082 57.322415,352.45221 C 74.530407,284.28928 90.986787,215.8974 108.66617,147.87807 C 116.09768,132.01741 134.58063,136.97745 148.49868,136.19369 C 198.5323,136.19369 248.56592,136.19369 298.59953,136.19368 C 314.84724,137.82345 308.88604,154.81507 305.99863,164.92539 C 302.94438,177.00199 299.89012,189.07858 296.83587,201.15518 C 248.82511,201.15518 200.81437,201.15518 152.80362,201.15518 C 143.83835,237.16324 134.87307,273.17129 125.9078,309.17934 C 152.3627,309.17934 178.81761,309.17934 205.27251,309.17934 C 206.3993,304.37826 207.52608,299.57719 208.65286,294.77611 z"
       id="path3304" />
    <path
       style="font-size:168.68637085px;font-style:normal;font-variant:normal;font-weight:normal;font-stretch:normal;fill-opacity:1;font-family:Masterforce Solid;-inkscape-font-specification:Masterforce Solid"
       d="M 462.04026,258.6211 C 483.06541,258.64353 489.39483,284.11261 486.5706,301.06381 C 482.05799,327.44876 474.64575,359.46144 448.42691,372.41391 C 416.51545,385.729 381.35243,380.11622 347.7126,381.34245 C 320.37043,381.34245 293.02826,381.34246 265.68609,381.34246 C 271.66294,357.28808 277.6398,333.23371 283.61663,309.17934 C 326.92429,309.17934 370.23194,309.17934 413.53959,309.17934 C 413.53959,309.17934 417.34704,294.77611 417.34704,294.77611 C 375.98321,294.77611 328.50779,294.77611 287.14395,294.77611 C 293.79142,268.45313 300.43889,242.13014 307.08635,215.80714 C 307.08635,215.80714 436.71538,215.80714 436.71538,215.80714 C 436.71538,215.80714 439.10555,201.40391 439.10555,201.40391 C 439.10555,201.40391 351.54723,201.40391 351.54723,201.40391 C 351.54723,201.40391 310.4667,201.40391 310.4667,201.40391 C 315.87091,179.66718 321.27511,157.93043 326.67933,136.19368 C 378.58596,136.27265 430.51776,136.05306 482.4049,136.26731 C 507.44937,134.05043 525.22083,158.72422 517.1545,181.9663 C 509.8859,211.18713 499.17316,257.09209 462.04026,258.62109"
       id="text3296"
       sodipodi:nodetypes="cccccccccccccccccc" />
  </g>
  <g
     inkscape:groupmode="layer"
     id="layer2"
     inkscape:label="effects"
     style="opacity:1;display:inline">
    <use
       x="0"
       y="0"
       xlink:href="#path3304"
       id="use3326"
       width="575"
       height="575"
       style="fill:#bef08d;fill-opacity:1;stroke:#2e540a;stroke-width:3;stroke-miterlimit:4;stroke-dasharray:none;stroke-opacity:1" />
    <use
       x="0"
       y="0"
       xlink:href="#text3296"
       id="use3331"
       width="575"
       height="575"
       style="fill:#888a85;stroke:#202120;stroke-width:3;stroke-miterlimit:4;stroke-dasharray:none;stroke-opacity:1;stroke-linejoin:round;stroke-linecap:round" />
    <path
       sodipodi:type="inkscape:offset"
       inkscape:radius="-4.4749746"
       inkscape:original="M 487 136.15625 C 485.49607 136.09164 483.97153 136.1427 482.40625 136.28125 C 430.51911 136.067 378.59414 136.26647 326.6875 136.1875 C 321.28328 157.92425 315.87295 179.66951 310.46875 201.40625 C 310.46875 201.40625 351.56249 201.40624 351.5625 201.40625 C 351.5625 201.40625 439.09374 201.40624 439.09375 201.40625 C 439.09375 201.40625 436.71874 215.8125 436.71875 215.8125 C 436.71875 215.8125 307.09374 215.8125 307.09375 215.8125 C 300.44629 242.1355 293.80372 268.45826 287.15625 294.78125 C 328.52009 294.78125 375.97991 294.78124 417.34375 294.78125 C 417.34375 294.78125 413.53126 309.18749 413.53125 309.1875 C 370.2236 309.1875 326.93265 309.18749 283.625 309.1875 C 277.64817 333.24187 271.66434 357.28936 265.6875 381.34375 C 293.02967 381.34375 320.37659 381.34376 347.71875 381.34375 C 381.35858 380.11752 416.52604 385.72134 448.4375 372.40625 C 474.65634 359.45378 482.0499 327.44745 486.5625 301.0625 C 489.38673 284.1113 483.05641 258.64744 462.03125 258.625 C 499.16415 257.096 509.88767 211.18959 517.15625 181.96875 C 524.71843 160.1793 509.55889 137.12546 487 136.15625 z "
       xlink:href="#text3296"
       style="font-size:168.68637085px;font-style:normal;font-variant:normal;font-weight:normal;font-stretch:normal;fill:url(#linearGradient3355);fill-opacity:1;display:inline;font-family:Masterforce Solid;-inkscape-font-specification:Masterforce Solid"
       id="path3335"
       inkscape:href="#text3296"
       d="M 486.8125,140.625 C 485.53914,140.5703 484.21976,140.62544 482.8125,140.75 C 482.66675,140.75713 482.52075,140.75713 482.375,140.75 C 431.67759,140.54066 380.94278,140.72157 330.1875,140.65625 C 325.52318,159.41563 320.85193,178.17845 316.1875,196.9375 C 324.66314,196.9375 351.5625,196.9375 351.5625,196.9375 C 351.5625,196.9375 439.09375,196.9375 439.09375,196.9375 C 440.40299,196.94106 441.64502,197.51773 442.49261,198.5156 C 443.34019,199.51346 443.70832,200.83243 443.5,202.125 C 443.5,202.125 441.125,216.53125 441.125,216.53125 C 440.77036,218.69027 438.90669,220.27637 436.71875,220.28125 C 436.71875,220.28125 317.22084,220.28125 310.59375,220.28125 C 304.69896,243.62516 298.80103,266.96782 292.90625,290.3125 C 332.93514,290.3125 377.80683,290.31249 417.34375,290.3125 C 418.73128,290.31645 420.0385,290.96376 420.88272,292.06492 C 421.72694,293.16607 422.01266,294.59652 421.65625,295.9375 C 421.65625,295.9375 417.84375,310.34375 417.84375,310.34375 C 417.31876,312.29477 415.55166,313.6521 413.53125,313.65625 C 371.39042,313.65625 329.26498,313.65624 287.125,313.65625 C 281.88768,334.73165 276.64353,355.80142 271.40625,376.875 C 296.84285,376.875 322.28273,376.87501 347.71875,376.875 C 381.94383,375.62744 416.25085,380.97142 446.65625,368.3125 C 446.67732,368.30197 446.6977,368.29181 446.71875,368.28125 C 458.52169,362.36056 466.14899,352.18919 471.53125,339.96875 C 476.9519,327.66115 479.91772,313.40105 482.15625,300.3125 C 483.41959,292.72984 482.53868,282.78574 479.15625,275.34375 C 475.77382,267.90176 470.73774,263.10304 462.03125,263.09375 C 459.64826,263.02355 457.7386,261.09764 457.6886,258.71414 C 457.63859,256.33063 459.4658,254.32633 461.84375,254.15625 C 478.58848,253.46676 489.01267,243.13835 496.84375,228.5625 C 504.67483,213.98665 509.17014,195.51787 512.8125,180.875 C 512.84862,180.74822 512.89033,180.6231 512.9375,180.5 C 519.57175,161.38426 506.41694,141.46728 486.8125,140.625 z" />
    <path
       sodipodi:type="inkscape:offset"
       inkscape:radius="-4.5035615"
       inkscape:original="M 131.75 136.0625 C 122.28395 136.19471 113.30094 137.96209 108.65625 147.875 C 90.976867 215.89433 74.520493 284.27457 57.3125 352.4375 C 54.476385 362.56611 48.574826 379.70244 64.625 381.34375 C 105.43414 381.34375 146.25336 381.34374 187.0625 381.34375 C 182.31042 400.54803 177.53333 419.76446 172.78125 438.96875 C 194.38609 438.96875 215.98891 438.96875 237.59375 438.96875 C 256.16117 364.60108 274.74509 290.21141 293.3125 215.84375 C 250.05383 215.74577 206.78992 215.66048 163.53125 215.5625 C 156.91753 241.9684 150.30122 268.37535 143.6875 294.78125 C 165.34133 294.78125 187.00243 294.78124 208.65625 294.78125 C 207.52947 299.58233 206.40804 304.38641 205.28125 309.1875 C 178.82635 309.1875 152.36115 309.18749 125.90625 309.1875 C 134.87152 273.17945 143.84723 237.16431 152.8125 201.15625 C 200.82325 201.15625 248.83298 201.15625 296.84375 201.15625 C 299.898 189.07965 302.94575 177.01411 306 164.9375 C 308.88741 154.82718 314.84147 137.81727 298.59375 136.1875 C 248.56014 136.18751 198.53363 136.18749 148.5 136.1875 C 143.28073 136.48141 137.42963 135.98317 131.75 136.0625 z "
       xlink:href="#path3304"
       style="font-size:168.68637085px;font-style:normal;font-variant:normal;font-weight:normal;font-stretch:normal;fill:url(#linearGradient3347);fill-opacity:1;display:inline;font-family:Masterforce Solid;-inkscape-font-specification:Masterforce Solid"
       id="path3338"
       inkscape:href="#path3304"
       d="M 131.8125,140.5625 C 127.33978,140.62497 123.30175,141.10583 120.15625,142.4375 C 117.08632,143.73717 114.74516,145.68522 112.875,149.53125 C 95.261288,217.32402 78.8591,285.51248 61.6875,353.53125 C 61.67768,353.57306 61.667262,353.61473 61.65625,353.65625 C 60.197309,358.86656 58.236838,365.42893 58.375,369.9375 C 58.444081,372.19178 58.971426,373.71364 59.78125,374.6875 C 60.576853,375.64425 61.894006,376.50362 64.96875,376.84375 C 105.66337,376.84375 146.36793,376.84374 187.0625,376.84375 C 188.44981,376.84227 189.76039,377.4802 190.61508,378.57297 C 191.46976,379.66574 191.77316,381.09141 191.4375,382.4375 C 187.14579,399.78131 182.82565,417.12814 178.53125,434.46875 C 197.04196,434.46875 215.55168,434.46875 234.0625,434.46875 C 251.8815,363.09997 269.71214,291.71217 287.53125,220.34375 C 247.37694,220.2538 207.21817,220.15283 167.0625,220.0625 C 161.19984,243.46906 155.33143,266.87502 149.46875,290.28125 C 169.19678,290.28125 188.92929,290.28124 208.65625,290.28125 C 210.02962,290.28439 211.32652,290.91397 212.17851,291.99113 C 213.0305,293.06829 213.34448,294.47532 213.03125,295.8125 C 211.90529,300.61009 210.78386,305.41416 209.65625,310.21875 C 209.17688,312.24845 207.36679,313.6836 205.28125,313.6875 C 178.82635,313.6875 152.36115,313.68749 125.90625,313.6875 C 124.51894,313.68898 123.20836,313.05105 122.35367,311.95828 C 121.49899,310.86551 121.19559,309.43984 121.53125,308.09375 C 130.49668,272.08504 139.47239,236.0699 148.4375,200.0625 C 148.94134,198.05762 150.74528,196.65312 152.8125,196.65625 C 199.65658,196.65625 246.4997,196.65625 293.34375,196.65625 C 296.10932,185.71884 298.85808,174.78426 301.625,163.84375 C 301.63449,163.79149 301.64491,163.73939 301.65625,163.6875 C 303.14128,158.48764 305.10993,151.98002 304.96875,147.53125 C 304.89816,145.30687 304.3818,143.80937 303.5625,142.84375 C 302.75736,141.89481 301.42122,141.02815 298.28125,140.6875 C 248.43518,140.68751 198.5961,140.68749 148.75,140.6875 C 148.66666,140.6875 148.58334,140.6875 148.5,140.6875 C 142.8846,140.97981 137.10748,140.48854 131.8125,140.5625 z" />
  </g>
</svg>
