<?xml version="1.0" encoding="UTF-8" standalone="no"?>
<!-- Created with Inkscape (http://www.inkscape.org/) -->
<svg
   xmlns:dc="http://purl.org/dc/elements/1.1/"
   xmlns:cc="http://creativecommons.org/ns#"
   xmlns:rdf="http://www.w3.org/1999/02/22-rdf-syntax-ns#"
   xmlns:svg="http://www.w3.org/2000/svg"
   xmlns="http://www.w3.org/2000/svg"
   xmlns:xlink="http://www.w3.org/1999/xlink"
   xmlns:sodipodi="http://sodipodi.sourceforge.net/DTD/sodipodi-0.dtd"
   xmlns:inkscape="http://www.inkscape.org/namespaces/inkscape"
   width="575"
   height="575"
   id="svg2"
   sodipodi:version="0.32"
   inkscape:version="0.46"
   version="1.0"
   sodipodi:docname="logo.svg"
   inkscape:output_extension="org.inkscape.output.svg.inkscape"
   inkscape:export-filename="/home/michael/Dropbox/Public/logo3.png"
   inkscape:export-xdpi="90"
   inkscape:export-ydpi="90">
  <defs
     id="defs4">
    <linearGradient
       id="linearGradient3766">
      <stop
         style="stop-color:#8ae234;stop-opacity:1;"
         offset="0"
         id="stop3768" />
      <stop
         style="stop-color:#4e9a06;stop-opacity:1"
         offset="1"
         id="stop3770" />
    </linearGradient>
    <linearGradient
       id="linearGradient3758">
      <stop
         style="stop-color:#555753;stop-opacity:1;"
         offset="0"
         id="stop3760" />
      <stop
         style="stop-color:#2e3436;stop-opacity:1"
         offset="1"
         id="stop3762" />
    </linearGradient>
    <linearGradient
       inkscape:collect="always"
       id="linearGradient3710">
      <stop
         style="stop-color:#ffffff;stop-opacity:1;"
         offset="0"
         id="stop3712" />
      <stop
         style="stop-color:#ffffff;stop-opacity:0;"
         offset="1"
         id="stop3714" />
    </linearGradient>
    <linearGradient
       inkscape:collect="always"
       id="linearGradient3353">
      <stop
         style="stop-color:#ffffff;stop-opacity:1;"
         offset="0"
         id="stop3355" />
      <stop
         style="stop-color:#ffffff;stop-opacity:0;"
         offset="1"
         id="stop3357" />
    </linearGradient>
    <linearGradient
       id="linearGradient3345">
      <stop
         style="stop-color:#ffffff;stop-opacity:1;"
         offset="0"
         id="stop3347" />
      <stop
         style="stop-color:#ffffff;stop-opacity:0;"
         offset="1"
         id="stop3349" />
    </linearGradient>
    <inkscape:perspective
       sodipodi:type="inkscape:persp3d"
       inkscape:vp_x="0 : 526.18109 : 1"
       inkscape:vp_y="0 : 1000 : 0"
       inkscape:vp_z="744.09448 : 526.18109 : 1"
       inkscape:persp3d-origin="372.04724 : 350.78739 : 1"
       id="perspective10" />
    <linearGradient
       inkscape:collect="always"
       xlink:href="#linearGradient3345"
       id="linearGradient3351"
       x1="-288"
       y1="319.99997"
       x2="-312"
       y2="-64.000023"
       gradientUnits="userSpaceOnUse" />
    <mask
       maskUnits="userSpaceOnUse"
       id="mask3453">
      <path
         transform="matrix(-0.71875,0,0,-0.9473684,-490.5,56.315779)"
         sodipodi:nodetypes="cccscc"
         id="use3455"
         d="M -816,-481.00001 L -48,-481 L -48,-169 C -48,-121 -240,-73 -456,-169 C -594.70684,-230.64748 -744,-221 -816,-101 L -816,-481.00001 z"
         style="fill:#ffffff;fill-opacity:1;fill-rule:evenodd;stroke:none;filter:url(#filter3593)" />
    </mask>
    <filter
       inkscape:collect="always"
       id="filter3593">
      <feGaussianBlur
         inkscape:collect="always"
         stdDeviation="2.9989225"
         id="feGaussianBlur3595" />
    </filter>
    <linearGradient
       inkscape:collect="always"
       xlink:href="#linearGradient3353"
       id="linearGradient3670"
       gradientUnits="userSpaceOnUse"
       x1="-312"
       y1="-15.99999"
       x2="-312"
       y2="439.99997" />
    <linearGradient
       inkscape:collect="always"
       xlink:href="#linearGradient3345"
       id="linearGradient3672"
       gradientUnits="userSpaceOnUse"
       x1="-312"
       y1="271.99994"
       x2="-312"
       y2="-64.000023" />
    <linearGradient
       inkscape:collect="always"
       xlink:href="#linearGradient3345"
       id="linearGradient3684"
       gradientUnits="userSpaceOnUse"
       x1="-312"
       y1="271.99994"
       x2="-312"
       y2="-64.000023" />
    <linearGradient
       inkscape:collect="always"
       xlink:href="#linearGradient3345"
       id="linearGradient3690"
       gradientUnits="userSpaceOnUse"
       x1="-312"
       y1="271.99994"
       x2="-312"
       y2="-64.000023" />
    <linearGradient
       inkscape:collect="always"
       xlink:href="#linearGradient3345"
       id="linearGradient3694"
       gradientUnits="userSpaceOnUse"
       x1="-312"
       y1="271.99994"
       x2="-312"
       y2="-64.000023" />
    <clipPath
       clipPathUnits="userSpaceOnUse"
       id="clipPath3698">
      <path
         transform="matrix(-0.71875,0,0,-0.9473684,-778.5,38.315879)"
         sodipodi:nodetypes="cccscc"
         id="use3700"
         d="M -816,-481.00001 L -48,-481 L -48,-169 C -48,-121 -240,-73 -456,-169 C -594.70684,-230.64748 -744,-221 -816,-101 L -816,-481.00001 z"
         style="fill:#ffffff;fill-opacity:1;fill-rule:evenodd;stroke:none;filter:url(#filter3593)" />
    </clipPath>
    <linearGradient
       inkscape:collect="always"
       xlink:href="#linearGradient3710"
       id="linearGradient3708"
       gradientUnits="userSpaceOnUse"
       x1="-384"
       y1="95.000008"
       x2="-384"
       y2="431" />
    <linearGradient
       inkscape:collect="always"
       xlink:href="#linearGradient3345"
       id="linearGradient3720"
       gradientUnits="userSpaceOnUse"
       x1="-312"
       y1="271.99994"
       x2="-312"
       y2="-64.000023" />
    <linearGradient
       inkscape:collect="always"
       xlink:href="#linearGradient3345"
       id="linearGradient3736"
       gradientUnits="userSpaceOnUse"
       x1="-312"
       y1="271.99994"
       x2="-312"
       y2="-64.000023" />
    <mask
       maskUnits="userSpaceOnUse"
       id="mask3746">
      <path
         transform="matrix(0.71875,0,0,0.9473684,130.5,319.68412)"
         sodipodi:nodetypes="cccscc"
         id="use3748"
         d="M -816,-481.00001 L -48,-481 L -48,-169 C -48,-121 -240,-73 -456,-169 C -594.70684,-230.64748 -744,-221 -816,-101 L -816,-481.00001 z"
         style="fill:#ffffff;fill-opacity:1;fill-rule:evenodd;stroke:none;filter:url(#filter3593)" />
    </mask>
    <mask
       maskUnits="userSpaceOnUse"
       id="mask3750">
      <path
         transform="matrix(-0.71875,0,0,-0.9473684,-490.5,38.315879)"
         sodipodi:nodetypes="cccscc"
         id="use3752"
         d="M -816,-481.00001 L -48,-481 L -48,-169 C -48,-121 -240,-73 -456,-169 C -594.70684,-230.64748 -744,-221 -816,-101 L -816,-481.00001 z"
         style="fill:#ffffff;fill-opacity:1;fill-rule:evenodd;stroke:none;filter:url(#filter3593)" />
    </mask>
    <linearGradient
       inkscape:collect="always"
       xlink:href="#linearGradient3345"
       id="linearGradient3754"
       gradientUnits="userSpaceOnUse"
       x1="-312"
       y1="95"
       x2="-312"
       y2="407" />
    <linearGradient
       inkscape:collect="always"
       xlink:href="#linearGradient3345"
       id="linearGradient3756"
       gradientUnits="userSpaceOnUse"
       x1="-312"
       y1="271.99994"
       x2="-312"
       y2="-64.000023" />
    <linearGradient
       inkscape:collect="always"
       xlink:href="#linearGradient3758"
       id="linearGradient3764"
       x1="-336"
       y1="119.00009"
       x2="-336"
       y2="-72.999908"
       gradientUnits="userSpaceOnUse" />
    <linearGradient
       inkscape:collect="always"
       xlink:href="#linearGradient3766"
       id="linearGradient3772"
       x1="-312"
       y1="191"
       x2="-312"
       y2="431"
       gradientUnits="userSpaceOnUse" />
    <linearGradient
       inkscape:collect="always"
       xlink:href="#linearGradient3758"
       id="linearGradient3782"
       gradientUnits="userSpaceOnUse"
       x1="-336"
       y1="119.00009"
       x2="-336"
       y2="-72.999908" />
    <linearGradient
       inkscape:collect="always"
       xlink:href="#linearGradient3766"
       id="linearGradient3784"
       gradientUnits="userSpaceOnUse"
       x1="-312"
       y1="191"
       x2="-312"
       y2="431" />
    <linearGradient
       inkscape:collect="always"
       xlink:href="#linearGradient3345"
       id="linearGradient3786"
       gradientUnits="userSpaceOnUse"
       x1="-312"
       y1="271.99994"
       x2="-312"
       y2="-64.000023" />
    <linearGradient
       inkscape:collect="always"
       xlink:href="#linearGradient3345"
       id="linearGradient3788"
       gradientUnits="userSpaceOnUse"
       x1="-312"
       y1="95"
       x2="-312"
       y2="407" />
    <linearGradient
       inkscape:collect="always"
       xlink:href="#linearGradient3766"
       id="linearGradient2450"
       gradientUnits="userSpaceOnUse"
       x1="-299.5"
       y1="-85.499962"
       x2="-312"
       y2="431" />
    <linearGradient
       inkscape:collect="always"
       xlink:href="#linearGradient3766"
       id="linearGradient2494"
       gradientUnits="userSpaceOnUse"
       x1="-299.5"
       y1="-85.499962"
       x2="-312"
       y2="431" />
  </defs>
  <sodipodi:namedview
     id="base"
     pagecolor="#707970"
     bordercolor="#5f5d5d"
     borderopacity="1"
     gridtolerance="10"
     guidetolerance="10"
     objecttolerance="10000"
     inkscape:pageopacity="1"
     inkscape:pageshadow="2"
     inkscape:zoom="1.4732416"
     inkscape:cx="322.59383"
     inkscape:cy="319.14538"
     inkscape:document-units="px"
     inkscape:current-layer="layer1"
     showgrid="true"
     inkscape:object-nodes="false"
     inkscape:window-width="1280"
     inkscape:window-height="739"
     inkscape:window-x="0"
     inkscape:window-y="30">
    <inkscape:grid
       type="xygrid"
       id="grid2383"
       visible="true"
       enabled="true"
       empspacing="6"
       spacingx="24px"
       spacingy="24px" />
  </sodipodi:namedview>
  <metadata
     id="metadata7">
    <rdf:RDF>
      <cc:Work
         rdf:about="">
        <dc:format>image/svg+xml</dc:format>
        <dc:type
           rdf:resource="http://purl.org/dc/dcmitype/StillImage" />
      </cc:Work>
    </rdf:RDF>
  </metadata>
  <g
     inkscape:label="base"
     inkscape:groupmode="layer"
     id="layer1"
     style="display:none"
     sodipodi:insensitive="true">
    <path
       transform="matrix(0.71875,0,0,0.9473684,586.5,-40.315789)"
       sodipodi:nodetypes="cccscc"
       id="use3335"
       d="M -816,-481.00001 L -48,-481 L -48,-169 C -48,-121 -240,-73 -456,-169 C -594.70684,-230.64748 -744,-221 -816,-101 L -816,-481.00001 z"
       style="fill-opacity:1;fill-rule:evenodd;stroke:none;filter:url(#filter3593)" />
    <path
       style="font-size:168.68637085px;font-style:normal;font-variant:normal;font-weight:normal;font-stretch:normal;fill-opacity:1;font-family:Masterforce Solid;-inkscape-font-specification:Masterforce Solid"
       d="M 208.65286,294.77611 C 186.99904,294.77611 165.34521,294.77611 143.69138,294.77611 C 150.3051,268.37022 156.91883,241.96431 163.53255,215.55841 C 206.79122,215.65639 250.04987,215.75435 293.30854,215.85233 C 274.74112,290.21999 256.17371,364.58765 237.60629,438.95532 C 216.00145,438.95532 194.39662,438.95532 172.79178,438.95532 C 177.54386,419.75103 182.29595,400.54674 187.04803,381.34246 C 146.23889,381.34246 105.42975,381.34246 64.620607,381.34246 C 48.570431,379.70116 54.4863,362.58082 57.322415,352.45221 C 74.530407,284.28928 90.986787,215.8974 108.66617,147.87807 C 116.09768,132.01741 134.58063,136.97745 148.49868,136.19369 C 198.5323,136.19369 248.56592,136.19369 298.59953,136.19368 C 314.84724,137.82345 308.88604,154.81507 305.99863,164.92539 C 302.94438,177.00199 299.89012,189.07858 296.83587,201.15518 C 248.82511,201.15518 200.81437,201.15518 152.80362,201.15518 C 143.83835,237.16324 134.87307,273.17129 125.9078,309.17934 C 152.3627,309.17934 178.81761,309.17934 205.27251,309.17934 C 206.3993,304.37826 207.52608,299.57719 208.65286,294.77611 z"
       id="path3304" />
    <path
       style="font-size:168.68637085px;font-style:normal;font-variant:normal;font-weight:normal;font-stretch:normal;fill-opacity:1;font-family:Masterforce Solid;-inkscape-font-specification:Masterforce Solid"
       d="M 462.04026,258.6211 C 483.06541,258.64353 489.39483,284.11261 486.5706,301.06381 C 482.05799,327.44876 474.64575,359.46144 448.42691,372.41391 C 416.51545,385.729 381.35243,380.11622 347.7126,381.34245 C 320.37043,381.34245 293.02826,381.34246 265.68609,381.34246 C 271.66294,357.28808 277.6398,333.23371 283.61663,309.17934 C 326.92429,309.17934 370.23194,309.17934 413.53959,309.17934 C 413.53959,309.17934 417.34704,294.77611 417.34704,294.77611 C 375.98321,294.77611 328.50779,294.77611 287.14395,294.77611 C 293.79142,268.45313 300.43889,242.13014 307.08635,215.80714 C 350.29602,215.80714 393.50569,215.80714 436.71538,215.80714 C 436.71538,215.80714 439.10555,201.40391 439.10555,201.40391 C 397.69273,201.40391 351.87954,201.40391 310.4667,201.40391 C 315.87091,179.66718 321.27511,157.93043 326.67933,136.19368 C 378.58596,136.27265 430.51776,136.05306 482.4049,136.26731 C 507.44937,134.05043 525.22083,158.72422 517.1545,181.9663 C 510.14488,208.32907 503.83956,240.35177 478.0784,254.98363 C 473.11206,257.4319 467.56978,258.63875 462.04026,258.62109"
       id="text3296" />
  </g>
  <g
     inkscape:groupmode="layer"
     id="layer2"
     inkscape:label="effects"
     style="display:inline">
    <use
       x="0"
       y="0"
       xlink:href="#path3304"
       id="use3326"
       width="575"
       height="575" />
    <use
       x="0"
       y="0"
       xlink:href="#text3296"
       id="use3331"
       width="575"
       height="575" />
  </g>
</svg>
